<svg xmlns="http://www.w3.org/2000/svg" width="109.005" height="109.005" viewBox="0 0 109.005 109.005">
  <g id="computing" transform="translate(-1 -1)">
    <path id="Path_1" data-name="Path 1" d="M99.456,59.951V25.473A12.3,12.3,0,1,0,85.391,13.307H1V83.633H53.834A28.112,28.112,0,1,0,99.456,59.951ZM97.7,4.516a8.791,8.791,0,1,1-8.791,8.791A8.8,8.8,0,0,1,97.7,4.516ZM4.516,16.823H85.91a12.3,12.3,0,0,0,1.946,3.842L77.1,31.418a5.091,5.091,0,0,0-4.52,0L69.04,27.875a5.225,5.225,0,0,0,.527-2.261,5.274,5.274,0,1,0-10.549,0,5.188,5.188,0,0,0,.529,2.259L50.731,36.69a5.225,5.225,0,0,0-2.261-.527,5.274,5.274,0,1,0,5.274,5.274,5.188,5.188,0,0,0-.529-2.259l8.817-8.817a5.1,5.1,0,0,0,4.52,0L70.1,33.9a5.225,5.225,0,0,0-.527,2.261,5.274,5.274,0,0,0,10.549,0,5.188,5.188,0,0,0-.529-2.259L90.342,23.151a12.232,12.232,0,0,0,5.6,2.324V57.553a27.959,27.959,0,0,0-35.163,5.779V55.5H50.228V76.6h4.03a28.2,28.2,0,0,0-.424,3.516H4.516ZM74.842,34.4a1.758,1.758,0,1,1-1.758,1.758A1.76,1.76,0,0,1,74.842,34.4ZM62.535,25.614a1.758,1.758,0,1,1,1.758,1.758A1.76,1.76,0,0,1,62.535,25.614ZM50.228,41.437a1.758,1.758,0,1,1-1.758-1.758A1.76,1.76,0,0,1,50.228,41.437Zm31.647,54.5A14.065,14.065,0,1,1,95.94,81.875,14.082,14.082,0,0,1,81.875,95.94ZM57.261,68.286a27.918,27.918,0,0,0-2.09,4.8H53.744V59.019h3.516ZM80.117,57.35v7.033A17.545,17.545,0,0,0,65.86,89.09l-6.1,3.522A24.529,24.529,0,0,1,80.117,57.35Zm1.758,49.138A24.6,24.6,0,0,1,61.5,95.667l6.124-3.536a17.524,17.524,0,0,0,28.5,0l6.124,3.536A24.6,24.6,0,0,1,81.875,106.489Zm22.114-13.877-6.1-3.522A17.545,17.545,0,0,0,83.633,64.383V57.35a24.529,24.529,0,0,1,20.356,35.261Z" transform="translate(0 0)" fill="#fff"/>
    <path id="Path_2" data-name="Path 2" d="M51.549,41A10.549,10.549,0,1,0,62.1,51.549,10.559,10.559,0,0,0,51.549,41Zm0,17.581a7.033,7.033,0,1,1,7.033-7.033A7.04,7.04,0,0,1,51.549,58.581Z" transform="translate(30.326 30.326)" fill="#fff"/>
    <path id="Path_3" data-name="Path 3" d="M5,12H8.516v3.516H5Z" transform="translate(3.033 8.34)" fill="#fff"/>
    <path id="Path_4" data-name="Path 4" d="M9,12H33.614v3.516H9Z" transform="translate(6.065 8.34)" fill="#fff"/>
    <path id="Path_5" data-name="Path 5" d="M5,16H8.516v3.516H5Z" transform="translate(3.033 11.372)" fill="#fff"/>
    <path id="Path_6" data-name="Path 6" d="M9,16H33.614v3.516H9Z" transform="translate(6.065 11.372)" fill="#fff"/>
    <path id="Path_7" data-name="Path 7" d="M5,20H8.516v3.516H5Z" transform="translate(3.033 14.405)" fill="#fff"/>
    <path id="Path_8" data-name="Path 8" d="M9,20H33.614v3.516H9Z" transform="translate(6.065 14.405)" fill="#fff"/>
    <path id="Path_9" data-name="Path 9" d="M5,24H8.516v3.516H5Z" transform="translate(3.033 17.437)" fill="#fff"/>
    <path id="Path_10" data-name="Path 10" d="M9,24H33.614v3.516H9Z" transform="translate(6.065 17.437)" fill="#fff"/>
    <path id="Path_11" data-name="Path 11" d="M5,51.581H15.549V34H5ZM8.516,37.516h3.516V48.065H8.516Z" transform="translate(3.033 25.019)" fill="#fff"/>
    <path id="Path_12" data-name="Path 12" d="M13,50.065H23.549V36H13Zm3.516-10.549h3.516v7.033H16.516Z" transform="translate(9.098 26.535)" fill="#fff"/>
    <path id="Path_13" data-name="Path 13" d="M21,56.13H31.549V28H21Zm3.516-24.614h3.516v21.1H24.516Z" transform="translate(15.163 20.47)" fill="#fff"/>
  </g>
</svg>
