<svg id="financing" xmlns="http://www.w3.org/2000/svg" width="88.385" height="88.385" viewBox="0 0 88.385 88.385">
  <path id="Path_18" data-name="Path 18" d="M48,448h2.851v2.851H48Zm0,0" transform="translate(-39.447 -368.168)" fill="#fff"/>
  <path id="Path_19" data-name="Path 19" d="M80,448h2.851v2.851H80Zm0,0" transform="translate(-65.744 -368.168)" fill="#fff"/>
  <path id="Path_20" data-name="Path 20" d="M112,448h2.851v2.851H112Zm0,0" transform="translate(-92.042 -368.168)" fill="#fff"/>
  <path id="Path_21" data-name="Path 21" d="M384,448h11.4v2.851H384Zm0,0" transform="translate(-315.573 -368.168)" fill="#fff"/>
  <path id="Path_22" data-name="Path 22" d="M85.534,74.13V27.086a7.136,7.136,0,0,0-7.128-7.128H74.13a19.958,19.958,0,1,0-39.916,0H9.979a7.136,7.136,0,0,0-7.128,7.128V74.13H0v7.128a7.136,7.136,0,0,0,7.128,7.128h74.13a7.136,7.136,0,0,0,7.128-7.128V74.13Zm-7.128-51.32a4.282,4.282,0,0,1,4.277,4.277V74.13H79.832V28.511a2.854,2.854,0,0,0-2.851-2.851H73.289a19.817,19.817,0,0,0,.613-2.851Zm-40.513-8.09,15.131,6.305L58.2,36.564A17.08,17.08,0,0,1,37.893,14.719Zm23.02,20.956L55.8,20.343,67.221,8.924a17.075,17.075,0,0,1-6.308,26.751ZM54.172,2.851A17.028,17.028,0,0,1,65.207,6.907L53.84,18.274,39,12.092a17.11,17.11,0,0,1,15.174-9.24ZM5.7,27.086a4.282,4.282,0,0,1,4.277-4.277H34.442a19.632,19.632,0,0,0,.613,2.851H11.4a2.854,2.854,0,0,0-2.851,2.851V74.13H5.7ZM85.534,81.258a4.282,4.282,0,0,1-4.277,4.277H7.128a4.282,4.282,0,0,1-4.277-4.277V76.981h29.37a11.077,11.077,0,0,0,7.452,2.851h9.042a11.077,11.077,0,0,0,7.452-2.851H74.13V74.13H55.007l-.418.418a8.253,8.253,0,0,1-5.876,2.434H39.671a8.255,8.255,0,0,1-5.876-2.434l-.416-.418H11.4V28.511H36.167a19.915,19.915,0,0,0,36.01,0h4.8V76.981h8.553Zm0,0" fill="#fff"/>
  <path id="Path_23" data-name="Path 23" d="M135.6,296.553a4.253,4.253,0,0,0-2.368.72l-4.973-3.729a4.212,4.212,0,0,0,.214-1.268,4.277,4.277,0,0,0-8.553,0,4.234,4.234,0,0,0,.252,1.394l-7.984,6.388a4.192,4.192,0,0,0-4.8.21l-6.147-4.1a4.183,4.183,0,0,0,.144-1.042,4.277,4.277,0,0,0-8.553,0,4.183,4.183,0,0,0,.144,1.042l-6.147,4.1a4.232,4.232,0,0,0-2.55-.864,4.277,4.277,0,1,0,4.277,4.277,4.183,4.183,0,0,0-.144-1.042l6.147-4.1a4.2,4.2,0,0,0,5.1,0l6.147,4.1a4.192,4.192,0,0,0-.144,1.042,4.277,4.277,0,0,0,8.553,0,4.233,4.233,0,0,0-.252-1.394l7.984-6.388a4.221,4.221,0,0,0,4.615-.065l4.973,3.729a4.212,4.212,0,0,0-.214,1.268,4.277,4.277,0,1,0,4.277-4.277Zm-51.32,8.553a1.426,1.426,0,1,1,1.426-1.426A1.428,1.428,0,0,1,84.277,305.107Zm12.83-8.553a1.426,1.426,0,1,1,1.426-1.426A1.428,1.428,0,0,1,97.107,296.553Zm12.83,8.553a1.426,1.426,0,1,1,1.426-1.426A1.428,1.428,0,0,1,109.937,305.107Zm14.256-11.4a1.426,1.426,0,1,1,1.426-1.426A1.428,1.428,0,0,1,124.193,293.7Zm11.4,8.553a1.426,1.426,0,1,1,1.426-1.426A1.428,1.428,0,0,1,135.6,302.256Zm0,0" transform="translate(-65.744 -236.68)" fill="#fff"/>
  <path id="Path_24" data-name="Path 24" d="M102.809,176H80v19.958h22.809Zm-2.851,17.107H82.851V178.851H99.958Zm0,0" transform="translate(-65.744 -144.637)" fill="#fff"/>
  <path id="Path_25" data-name="Path 25" d="M112,208h11.4v2.851H112Zm0,0" transform="translate(-92.042 -170.935)" fill="#fff"/>
  <path id="Path_26" data-name="Path 26" d="M112,240h11.4v2.851H112Zm0,0" transform="translate(-92.042 -197.233)" fill="#fff"/>
  <path id="Path_27" data-name="Path 27" d="M224,256h2.851v2.851H224Zm0,0" transform="translate(-184.084 -210.382)" fill="#fff"/>
  <path id="Path_28" data-name="Path 28" d="M256,256h28.511v2.851H256Zm0,0" transform="translate(-210.382 -210.382)" fill="#fff"/>
</svg>
