<svg xmlns="http://www.w3.org/2000/svg" width="98.841" height="98.841" viewBox="0 0 98.841 98.841">
  <g id="average" transform="translate(-1 -1)">
    <path id="Path_14" data-name="Path 14" d="M99.841,1H23.319V52.506a55.528,55.528,0,0,1-10.868,1.1h-.292a11.152,11.152,0,0,0-1.77,22.164l1.77,3.737V93.464a6.377,6.377,0,1,0,12.754,0V77.353a55.233,55.233,0,0,1,18.246,7.872l.4.268h8.454V77.522H99.841Zm-54.2,43.044H43.561l-.4.268c-1.269.847-2.575,1.623-3.9,2.358V32.884h6.377Zm-3.188,4.441V81.052a58.259,58.259,0,0,0-25.507-8.134v-16.3a58.258,58.258,0,0,0,25.507-8.134ZM4.188,64.768A7.98,7.98,0,0,1,12.159,56.8h.292c.437,0,.867-.037,1.3-.048V72.787c-.435-.011-.866-.048-1.3-.048h-.292a7.98,7.98,0,0,1-7.971-7.971Zm17.536,28.7a3.188,3.188,0,1,1-6.377,0V78.793l-1.33-2.807a55.38,55.38,0,0,1,7.706.751ZM48.826,82.3H45.638V47.232h3.188Zm15.942-7.971H58.392V26.507h6.377Zm19.131,0H77.522V39.261H83.9Zm12.754,0H87.087V36.073H74.334V74.334H67.957V23.319H55.2V74.334H52.015V44.044H48.826V29.7H36.073V48.321a55.1,55.1,0,0,1-9.565,3.443V4.188H96.653Z" transform="translate(0 0)" fill="#fff"/>
    <path id="Path_15" data-name="Path 15" d="M29.377,24.131a6.383,6.383,0,0,0,6.377-6.377c0-.148-.033-.285-.043-.43l7.456-2.485a6.317,6.317,0,0,0,9.57,1.275l8.9,5.935a6.308,6.308,0,0,0-.378,2.082,6.443,6.443,0,1,0,2.147-4.736l-8.9-5.935a6.308,6.308,0,0,0,.378-2.082,6.377,6.377,0,1,0-12.754,0c0,.147.033.285.043.43l-7.456,2.485a6.371,6.371,0,1,0-5.341,9.838Zm38.261-3.188a3.188,3.188,0,1,1-3.188,3.188A3.192,3.192,0,0,1,67.638,20.942ZM48.507,8.188a3.188,3.188,0,1,1-3.188,3.188A3.192,3.192,0,0,1,48.507,8.188ZM29.377,14.565a3.188,3.188,0,1,1-3.188,3.188A3.192,3.192,0,0,1,29.377,14.565Z" transform="translate(13.073 2.377)" fill="#fff"/>
    <path id="Path_16" data-name="Path 16" d="M13,42h3.188v3.188H13Z" transform="translate(7.131 24.363)" fill="#fff"/>
    <path id="Path_17" data-name="Path 17" d="M13,38h3.188v3.188H13Z" transform="translate(7.131 21.986)" fill="#fff"/>
  </g>
</svg>
